<mxfile host="Electron" agent="Mozilla/5.0 (Windows NT 10.0; Win64; x64) AppleWebKit/537.36 (KHTML, like Gecko) draw.io/28.0.6 Chrome/138.0.7204.100 Electron/37.2.3 Safari/537.36" version="28.0.6">
  <diagram name="PÃ¡gina-1" id="BuJLDn-vbXlO6GnzYD8f">
    <mxGraphModel dx="1213" dy="828" grid="1" gridSize="10" guides="1" tooltips="1" connect="1" arrows="1" fold="1" page="1" pageScale="1" pageWidth="827" pageHeight="1169" math="0" shadow="0">
      <root>
        <mxCell id="0" />
        <mxCell id="1" parent="0" />
        <mxCell id="d0IPEZ3Ui8fPhs2rruIi-8" style="edgeStyle=orthogonalEdgeStyle;rounded=0;orthogonalLoop=1;jettySize=auto;html=1;exitX=0.5;exitY=1;exitDx=0;exitDy=0;" edge="1" parent="1" source="d0IPEZ3Ui8fPhs2rruIi-1" target="d0IPEZ3Ui8fPhs2rruIi-2">
          <mxGeometry relative="1" as="geometry" />
        </mxCell>
        <mxCell id="d0IPEZ3Ui8fPhs2rruIi-1" value="Socket()&lt;div&gt;protocolo&lt;/div&gt;&lt;div&gt;puerto&lt;/div&gt;" style="rounded=1;whiteSpace=wrap;html=1;" vertex="1" parent="1">
          <mxGeometry x="294" y="70" width="120" height="60" as="geometry" />
        </mxCell>
        <mxCell id="d0IPEZ3Ui8fPhs2rruIi-9" style="edgeStyle=orthogonalEdgeStyle;rounded=0;orthogonalLoop=1;jettySize=auto;html=1;exitX=0.5;exitY=1;exitDx=0;exitDy=0;entryX=0.5;entryY=0;entryDx=0;entryDy=0;" edge="1" parent="1" source="d0IPEZ3Ui8fPhs2rruIi-2" target="d0IPEZ3Ui8fPhs2rruIi-3">
          <mxGeometry relative="1" as="geometry" />
        </mxCell>
        <mxCell id="d0IPEZ3Ui8fPhs2rruIi-30" style="edgeStyle=orthogonalEdgeStyle;rounded=0;orthogonalLoop=1;jettySize=auto;html=1;exitX=1;exitY=0.5;exitDx=0;exitDy=0;entryX=0;entryY=0.5;entryDx=0;entryDy=0;" edge="1" parent="1" source="d0IPEZ3Ui8fPhs2rruIi-2" target="d0IPEZ3Ui8fPhs2rruIi-19">
          <mxGeometry relative="1" as="geometry" />
        </mxCell>
        <mxCell id="d0IPEZ3Ui8fPhs2rruIi-31" value="Puerto / IP" style="edgeLabel;html=1;align=center;verticalAlign=middle;resizable=0;points=[];" vertex="1" connectable="0" parent="d0IPEZ3Ui8fPhs2rruIi-30">
          <mxGeometry x="-0.1313" y="2" relative="1" as="geometry">
            <mxPoint as="offset" />
          </mxGeometry>
        </mxCell>
        <mxCell id="d0IPEZ3Ui8fPhs2rruIi-2" value="connect()" style="rounded=1;whiteSpace=wrap;html=1;" vertex="1" parent="1">
          <mxGeometry x="294" y="350" width="120" height="60" as="geometry" />
        </mxCell>
        <mxCell id="d0IPEZ3Ui8fPhs2rruIi-10" style="edgeStyle=orthogonalEdgeStyle;rounded=0;orthogonalLoop=1;jettySize=auto;html=1;exitX=0.5;exitY=1;exitDx=0;exitDy=0;entryX=0.5;entryY=0;entryDx=0;entryDy=0;" edge="1" parent="1" source="d0IPEZ3Ui8fPhs2rruIi-3" target="d0IPEZ3Ui8fPhs2rruIi-4">
          <mxGeometry relative="1" as="geometry" />
        </mxCell>
        <mxCell id="d0IPEZ3Ui8fPhs2rruIi-33" style="edgeStyle=orthogonalEdgeStyle;rounded=0;orthogonalLoop=1;jettySize=auto;html=1;exitX=1;exitY=0.5;exitDx=0;exitDy=0;entryX=0;entryY=0.5;entryDx=0;entryDy=0;" edge="1" parent="1" source="d0IPEZ3Ui8fPhs2rruIi-3" target="d0IPEZ3Ui8fPhs2rruIi-20">
          <mxGeometry relative="1" as="geometry" />
        </mxCell>
        <mxCell id="d0IPEZ3Ui8fPhs2rruIi-34" value="message" style="edgeLabel;html=1;align=center;verticalAlign=middle;resizable=0;points=[];" vertex="1" connectable="0" parent="d0IPEZ3Ui8fPhs2rruIi-33">
          <mxGeometry x="-0.0782" y="4" relative="1" as="geometry">
            <mxPoint as="offset" />
          </mxGeometry>
        </mxCell>
        <mxCell id="d0IPEZ3Ui8fPhs2rruIi-3" value="write()" style="rounded=1;whiteSpace=wrap;html=1;" vertex="1" parent="1">
          <mxGeometry x="294" y="450" width="120" height="60" as="geometry" />
        </mxCell>
        <mxCell id="d0IPEZ3Ui8fPhs2rruIi-11" style="edgeStyle=orthogonalEdgeStyle;rounded=0;orthogonalLoop=1;jettySize=auto;html=1;exitX=0.5;exitY=1;exitDx=0;exitDy=0;entryX=0.5;entryY=0;entryDx=0;entryDy=0;" edge="1" parent="1" source="d0IPEZ3Ui8fPhs2rruIi-4" target="d0IPEZ3Ui8fPhs2rruIi-5">
          <mxGeometry relative="1" as="geometry" />
        </mxCell>
        <mxCell id="d0IPEZ3Ui8fPhs2rruIi-4" value="read()" style="rounded=1;whiteSpace=wrap;html=1;" vertex="1" parent="1">
          <mxGeometry x="294" y="540" width="120" height="60" as="geometry" />
        </mxCell>
        <mxCell id="d0IPEZ3Ui8fPhs2rruIi-39" style="edgeStyle=orthogonalEdgeStyle;rounded=0;orthogonalLoop=1;jettySize=auto;html=1;exitX=1;exitY=0.5;exitDx=0;exitDy=0;entryX=0;entryY=0.5;entryDx=0;entryDy=0;" edge="1" parent="1" source="d0IPEZ3Ui8fPhs2rruIi-5" target="d0IPEZ3Ui8fPhs2rruIi-23">
          <mxGeometry relative="1" as="geometry" />
        </mxCell>
        <mxCell id="d0IPEZ3Ui8fPhs2rruIi-5" value="close()" style="rounded=1;whiteSpace=wrap;html=1;" vertex="1" parent="1">
          <mxGeometry x="294" y="640" width="120" height="60" as="geometry" />
        </mxCell>
        <mxCell id="d0IPEZ3Ui8fPhs2rruIi-12" style="edgeStyle=orthogonalEdgeStyle;rounded=0;orthogonalLoop=1;jettySize=auto;html=1;exitX=0.5;exitY=1;exitDx=0;exitDy=0;" edge="1" parent="1" source="d0IPEZ3Ui8fPhs2rruIi-13" target="d0IPEZ3Ui8fPhs2rruIi-15">
          <mxGeometry relative="1" as="geometry" />
        </mxCell>
        <mxCell id="d0IPEZ3Ui8fPhs2rruIi-13" value="Socket()&lt;div&gt;protocolo&lt;/div&gt;&lt;div&gt;puerto&lt;/div&gt;" style="rounded=1;whiteSpace=wrap;html=1;" vertex="1" parent="1">
          <mxGeometry x="610" y="70" width="120" height="60" as="geometry" />
        </mxCell>
        <mxCell id="d0IPEZ3Ui8fPhs2rruIi-14" style="edgeStyle=orthogonalEdgeStyle;rounded=0;orthogonalLoop=1;jettySize=auto;html=1;exitX=0.5;exitY=1;exitDx=0;exitDy=0;entryX=0.5;entryY=0;entryDx=0;entryDy=0;" edge="1" parent="1" source="d0IPEZ3Ui8fPhs2rruIi-15" target="d0IPEZ3Ui8fPhs2rruIi-17">
          <mxGeometry relative="1" as="geometry" />
        </mxCell>
        <mxCell id="d0IPEZ3Ui8fPhs2rruIi-15" value="bind()&lt;div&gt;define puerto e IP&lt;/div&gt;" style="rounded=1;whiteSpace=wrap;html=1;" vertex="1" parent="1">
          <mxGeometry x="610" y="160" width="120" height="60" as="geometry" />
        </mxCell>
        <mxCell id="d0IPEZ3Ui8fPhs2rruIi-16" style="edgeStyle=orthogonalEdgeStyle;rounded=0;orthogonalLoop=1;jettySize=auto;html=1;exitX=0.5;exitY=1;exitDx=0;exitDy=0;entryX=0.5;entryY=0;entryDx=0;entryDy=0;" edge="1" parent="1" source="d0IPEZ3Ui8fPhs2rruIi-17" target="d0IPEZ3Ui8fPhs2rruIi-19">
          <mxGeometry relative="1" as="geometry" />
        </mxCell>
        <mxCell id="d0IPEZ3Ui8fPhs2rruIi-17" value="listen()&lt;div&gt;publica y lo mantiene en escucha&lt;/div&gt;" style="rounded=1;whiteSpace=wrap;html=1;" vertex="1" parent="1">
          <mxGeometry x="610" y="250" width="120" height="60" as="geometry" />
        </mxCell>
        <mxCell id="d0IPEZ3Ui8fPhs2rruIi-18" style="edgeStyle=orthogonalEdgeStyle;rounded=0;orthogonalLoop=1;jettySize=auto;html=1;exitX=0.5;exitY=1;exitDx=0;exitDy=0;entryX=0.5;entryY=0;entryDx=0;entryDy=0;" edge="1" parent="1" source="d0IPEZ3Ui8fPhs2rruIi-19" target="d0IPEZ3Ui8fPhs2rruIi-20">
          <mxGeometry relative="1" as="geometry" />
        </mxCell>
        <mxCell id="d0IPEZ3Ui8fPhs2rruIi-19" value="accept()" style="rounded=1;whiteSpace=wrap;html=1;" vertex="1" parent="1">
          <mxGeometry x="610" y="350" width="120" height="60" as="geometry" />
        </mxCell>
        <mxCell id="d0IPEZ3Ui8fPhs2rruIi-20" value="read()" style="rounded=1;whiteSpace=wrap;html=1;" vertex="1" parent="1">
          <mxGeometry x="610" y="450" width="120" height="60" as="geometry" />
        </mxCell>
        <mxCell id="d0IPEZ3Ui8fPhs2rruIi-21" style="edgeStyle=orthogonalEdgeStyle;rounded=0;orthogonalLoop=1;jettySize=auto;html=1;exitX=0.5;exitY=1;exitDx=0;exitDy=0;entryX=0.5;entryY=0;entryDx=0;entryDy=0;" edge="1" parent="1" source="d0IPEZ3Ui8fPhs2rruIi-22" target="d0IPEZ3Ui8fPhs2rruIi-23">
          <mxGeometry relative="1" as="geometry" />
        </mxCell>
        <mxCell id="d0IPEZ3Ui8fPhs2rruIi-38" style="edgeStyle=orthogonalEdgeStyle;rounded=0;orthogonalLoop=1;jettySize=auto;html=1;exitX=0;exitY=0.5;exitDx=0;exitDy=0;entryX=1;entryY=0.5;entryDx=0;entryDy=0;" edge="1" parent="1" source="d0IPEZ3Ui8fPhs2rruIi-22" target="d0IPEZ3Ui8fPhs2rruIi-4">
          <mxGeometry relative="1" as="geometry" />
        </mxCell>
        <mxCell id="d0IPEZ3Ui8fPhs2rruIi-41" value="message" style="edgeLabel;html=1;align=center;verticalAlign=middle;resizable=0;points=[];" vertex="1" connectable="0" parent="d0IPEZ3Ui8fPhs2rruIi-38">
          <mxGeometry x="0.0578" relative="1" as="geometry">
            <mxPoint as="offset" />
          </mxGeometry>
        </mxCell>
        <mxCell id="d0IPEZ3Ui8fPhs2rruIi-22" value="write()" style="rounded=1;whiteSpace=wrap;html=1;" vertex="1" parent="1">
          <mxGeometry x="610" y="540" width="120" height="60" as="geometry" />
        </mxCell>
        <mxCell id="d0IPEZ3Ui8fPhs2rruIi-27" style="edgeStyle=orthogonalEdgeStyle;rounded=0;orthogonalLoop=1;jettySize=auto;html=1;exitX=0.5;exitY=1;exitDx=0;exitDy=0;entryX=0.5;entryY=0;entryDx=0;entryDy=0;" edge="1" parent="1" source="d0IPEZ3Ui8fPhs2rruIi-23" target="d0IPEZ3Ui8fPhs2rruIi-25">
          <mxGeometry relative="1" as="geometry" />
        </mxCell>
        <mxCell id="d0IPEZ3Ui8fPhs2rruIi-23" value="read()" style="rounded=1;whiteSpace=wrap;html=1;" vertex="1" parent="1">
          <mxGeometry x="610" y="640" width="120" height="60" as="geometry" />
        </mxCell>
        <mxCell id="d0IPEZ3Ui8fPhs2rruIi-25" value="close()" style="rounded=1;whiteSpace=wrap;html=1;" vertex="1" parent="1">
          <mxGeometry x="610" y="730" width="120" height="60" as="geometry" />
        </mxCell>
        <mxCell id="d0IPEZ3Ui8fPhs2rruIi-28" value="CLIENT" style="text;html=1;align=center;verticalAlign=middle;whiteSpace=wrap;rounded=0;" vertex="1" parent="1">
          <mxGeometry x="320" y="20" width="60" height="30" as="geometry" />
        </mxCell>
        <mxCell id="d0IPEZ3Ui8fPhs2rruIi-29" value="SERVER" style="text;html=1;align=center;verticalAlign=middle;whiteSpace=wrap;rounded=0;" vertex="1" parent="1">
          <mxGeometry x="640" y="20" width="60" height="30" as="geometry" />
        </mxCell>
        <mxCell id="d0IPEZ3Ui8fPhs2rruIi-40" value="" style="rounded=0;whiteSpace=wrap;html=1;fillColor=none;dashed=1;dashPattern=12 12;" vertex="1" parent="1">
          <mxGeometry x="240" y="420" width="540" height="200" as="geometry" />
        </mxCell>
        <mxCell id="d0IPEZ3Ui8fPhs2rruIi-42" value="InterconexiÃ³n" style="text;html=1;align=center;verticalAlign=middle;resizable=0;points=[];autosize=1;strokeColor=none;fillColor=none;" vertex="1" parent="1">
          <mxGeometry x="460" y="510" width="100" height="30" as="geometry" />
        </mxCell>
      </root>
    </mxGraphModel>
  </diagram>
</mxfile>
